<svg xmlns="http://www.w3.org/2000/svg" xmlns:xlink="http://www.w3.org/1999/xlink" width="129" height="98" viewBox="0 0 129 98">
  <defs>
    <filter id="Rectangle_1" x="0" y="0" width="129" height="98" filterUnits="userSpaceOnUse">
      <feOffset dy="3" input="SourceAlpha"/>
      <feGaussianBlur stdDeviation="3" result="blur"/>
      <feFlood flood-color="#0c0c0c" flood-opacity="0.302"/>
      <feComposite operator="in" in2="blur"/>
      <feComposite in="SourceGraphic"/>
    </filter>
  </defs>
  <g id="Group_8" data-name="Group 8" transform="translate(-352 6)">
    <g transform="matrix(1, 0, 0, 1, 352, -6)" filter="url(#Rectangle_1)">
      <rect id="Rectangle_1-2" data-name="Rectangle 1" width="111" height="80" transform="translate(9 6)" fill="#fff"/>
    </g>
    <g id="header-accurateLogo" transform="translate(367.475 8.829)">
      <path id="Path_1" data-name="Path 1" d="M1.8,51.383A210.179,210.179,0,0,1,51.176,45.5c28.474,0,49.063,6.446,49.063,6.446C84.406,49.63,71.077,49.255,53.3,49.818,24.955,50.694,5.242,55.7,5.242,55.7Z" transform="translate(-1.8 -16.963)" fill="#bcbec0"/>
      <path id="Path_2" data-name="Path 2" d="M51.5,41.572c2-.188,4.068-.313,6.2-.438V34.5Z" transform="translate(-20.397 -12.847)" fill="none"/>
      <path id="Path_3" data-name="Path 3" d="M100.5,41.134c2.19.125,4.255.313,6.258.5L100.5,34.5Z" transform="translate(-38.733 -12.847)" fill="none"/>
      <path id="Path_4" data-name="Path 4" d="M51.3,21.553v6.571c3.066-.188,6.2-.313,9.45-.375V-.1L34.4,29.814c3.317-.438,6.884-.876,10.7-1.189Z" transform="translate(-13.999 0.1)" fill="#8dc63f"/>
      <path id="Path_5" data-name="Path 5" d="M61.4,69.408h9.45V53.7c-3.254.188-6.446.375-9.45.626Z" transform="translate(-24.102 -20.032)" fill="#8dc63f"/>
      <path id="Path_6" data-name="Path 6" d="M7,70.568h9.637L28.778,56.8c-4.255.563-8.01,1.126-11.139,1.69Z" transform="translate(-3.746 -21.192)" fill="#8dc63f"/>
      <path id="Path_7" data-name="Path 7" d="M85.4,69.183h9.45V53.1c-3,0-6.133.063-9.45.188Z" transform="translate(-33.083 -19.807)" fill="#333"/>
      <path id="Path_8" data-name="Path 8" d="M94.85,21.553l6.258,7.134c3.943.375,7.51.876,10.826,1.377L85.4-.1V27.811c3.254.063,6.383.188,9.45.375Z" transform="translate(-33.083 0.1)" fill="#333"/>
      <path id="Path_9" data-name="Path 9" d="M130.981,69.221h9.637L126.975,53.7c-3.254-.25-6.571-.375-10.075-.5Z" transform="translate(-44.87 -19.845)" fill="#333"/>
      <g id="Group_1" data-name="Group 1" transform="translate(2.378 52.255)">
        <path id="Path_10" data-name="Path 10" d="M7.227,88.431l-.751,2.19H5.6L7.915,83.8H8.979l2.315,6.821h-.939l-.751-2.19Zm2.19-.688L8.792,85.8c-.125-.438-.25-.876-.375-1.252h0c-.125.375-.188.814-.313,1.252l-.688,1.94Z" transform="translate(-5.6 -83.55)" fill="#58595b"/>
        <path id="Path_11" data-name="Path 11" d="M20.094,90.3a3.9,3.9,0,0,1-1.815.313A3.171,3.171,0,0,1,14.9,87.167,3.383,3.383,0,0,1,18.467,83.6a3.576,3.576,0,0,1,1.627.313l-.188.688a2.8,2.8,0,0,0-1.377-.313A2.52,2.52,0,0,0,15.9,87.1a2.47,2.47,0,0,0,2.628,2.754,3.263,3.263,0,0,0,1.439-.313Z" transform="translate(-9.08 -83.475)" fill="#58595b"/>
        <path id="Path_12" data-name="Path 12" d="M28.294,90.3a3.9,3.9,0,0,1-1.815.313A3.171,3.171,0,0,1,23.1,87.167,3.383,3.383,0,0,1,26.667,83.6a3.576,3.576,0,0,1,1.627.313l-.188.688a2.8,2.8,0,0,0-1.377-.313A2.52,2.52,0,0,0,24.1,87.1a2.47,2.47,0,0,0,2.628,2.754,3.263,3.263,0,0,0,1.439-.313Z" transform="translate(-12.148 -83.475)" fill="#58595b"/>
        <path id="Path_13" data-name="Path 13" d="M33.539,83.8v4.005c0,1.5.688,2.19,1.565,2.19,1,0,1.627-.688,1.627-2.19V83.8h.876v3.943c0,2.065-1.126,2.941-2.566,2.941-1.377,0-2.441-.814-2.441-2.879V83.8Z" transform="translate(-15.703 -83.55)" fill="#58595b"/>
        <path id="Path_14" data-name="Path 14" d="M42.3,83.825a12.478,12.478,0,0,1,1.69-.125,2.661,2.661,0,0,1,1.94.563,1.838,1.838,0,0,1-.688,3.066h0a1.852,1.852,0,0,1,1,1.377c.25.939.375,1.627.5,1.877H45.8a7.277,7.277,0,0,1-.438-1.627c-.188-.939-.563-1.314-1.377-1.314h-.814v2.941H42.3V83.825Zm.876,3.129h.876c.939,0,1.565-.5,1.565-1.314,0-.876-.626-1.252-1.565-1.252-.438,0-.751.063-.876.063Z" transform="translate(-19.333 -83.512)" fill="#58595b"/>
        <path id="Path_15" data-name="Path 15" d="M51.627,88.394l-.688,2.128H50L52.315,83.7h1.064l2.315,6.821h-.939l-.751-2.128Zm2.253-.688-.688-1.94c-.125-.438-.25-.876-.375-1.252h0c-.125.375-.188.814-.313,1.252l-.688,1.94Z" transform="translate(-22.214 -83.512)" fill="#58595b"/>
        <path id="Path_16" data-name="Path 16" d="M60.165,84.551H58.1V83.8h5.069v.751H61.1v6.07h-.876v-6.07Z" transform="translate(-25.245 -83.55)" fill="#58595b"/>
        <path id="Path_17" data-name="Path 17" d="M70.7,87.43H68.076V89.87h2.941v.751H67.2V83.8h3.692v.751H68.076v2.128H70.7Z" transform="translate(-28.65 -83.55)" fill="#58595b"/>
        <path id="Path_18" data-name="Path 18" d="M79.027,88.394l-.688,2.128H77.4L79.715,83.7h1.064l2.315,6.821h-.939l-.751-2.128Zm2.253-.688-.688-1.94c-.125-.438-.25-.876-.375-1.252h0c-.125.375-.188.814-.313,1.252l-.688,1.94Z" transform="translate(-32.467 -83.512)" fill="#58595b"/>
        <path id="Path_19" data-name="Path 19" d="M88,83.825a11.7,11.7,0,0,1,1.69-.125,2.59,2.59,0,0,1,1.877.563,1.832,1.832,0,0,1,.626,1.439,2,2,0,0,1-.5,1.439,2.791,2.791,0,0,1-2.065.751,2.346,2.346,0,0,1-.688-.063v2.754H88Zm.876,3.254a2.579,2.579,0,0,0,.751.063c1.064,0,1.69-.5,1.69-1.439,0-.876-.626-1.314-1.627-1.314a2.6,2.6,0,0,0-.814.063v2.628Z" transform="translate(-36.434 -83.512)" fill="#58595b"/>
        <path id="Path_20" data-name="Path 20" d="M96.4,83.825a11.7,11.7,0,0,1,1.69-.125,2.872,2.872,0,0,1,1.94.563,1.832,1.832,0,0,1,.626,1.439,2,2,0,0,1-.5,1.439,2.791,2.791,0,0,1-2.065.751,2.346,2.346,0,0,1-.688-.063v2.754h-.876V83.825Zm.876,3.254a2.579,2.579,0,0,0,.751.063c1.064,0,1.69-.5,1.69-1.439,0-.876-.626-1.314-1.627-1.314a2.6,2.6,0,0,0-.814.063v2.628Z" transform="translate(-39.577 -83.512)" fill="#58595b"/>
        <path id="Path_21" data-name="Path 21" d="M104.5,83.825a12.478,12.478,0,0,1,1.69-.125,2.661,2.661,0,0,1,1.94.563,1.838,1.838,0,0,1-.688,3.066h0a1.852,1.852,0,0,1,1,1.377c.25.939.375,1.627.5,1.877H108a7.278,7.278,0,0,1-.438-1.627c-.188-.939-.563-1.314-1.377-1.314h-.814v2.941H104.5Zm.876,3.129h.876c.939,0,1.565-.5,1.565-1.314,0-.876-.626-1.252-1.565-1.252-.438,0-.751.063-.876.063Z" transform="translate(-42.608 -83.512)" fill="#58595b"/>
        <path id="Path_22" data-name="Path 22" d="M113.827,88.394l-.688,2.128H112.2l2.315-6.821h1.064l2.315,6.821h-.939l-.751-2.128Zm2.253-.688-.688-1.94c-.125-.438-.25-.876-.375-1.252h0c-.125.375-.188.814-.313,1.252l-.688,1.94Z" transform="translate(-45.489 -83.512)" fill="#58595b"/>
        <path id="Path_23" data-name="Path 23" d="M123.676,83.8v6.821H122.8V83.8Z" transform="translate(-49.455 -83.55)" fill="#58595b"/>
        <path id="Path_24" data-name="Path 24" d="M125.888,89.345a2.892,2.892,0,0,0,1.565.438c.876,0,1.439-.5,1.439-1.189,0-.626-.376-1-1.252-1.377-1.126-.375-1.815-.939-1.815-1.94a1.973,1.973,0,0,1,2.19-1.877,3.87,3.87,0,0,1,1.5.313l-.25.688a2.855,2.855,0,0,0-1.314-.313c-.939,0-1.252.563-1.252,1,0,.626.438.939,1.377,1.314,1.126.438,1.752,1,1.752,2,0,1.064-.751,1.94-2.378,1.94a3.619,3.619,0,0,1-1.752-.438Z" transform="translate(-50.541 -83.4)" fill="#58595b"/>
        <path id="Path_25" data-name="Path 25" d="M134.427,88.394l-.688,2.128H132.8l2.315-6.821h1.064l2.315,6.821h-.939l-.751-2.128Zm2.253-.688-.688-1.94c-.125-.438-.25-.876-.375-1.252h0c-.125.375-.188.814-.313,1.252l-.688,1.94Z" transform="translate(-53.197 -83.512)" fill="#58595b"/>
        <path id="Path_26" data-name="Path 26" d="M143.363,83.8h.876v6.07h2.879v.751H143.3V83.8Z" transform="translate(-57.126 -83.55)" fill="#58595b"/>
        <path id="Path_27" data-name="Path 27" d="M150.788,89.345a2.892,2.892,0,0,0,1.565.438c.876,0,1.439-.5,1.439-1.189,0-.626-.375-1-1.252-1.377-1.126-.375-1.815-.939-1.815-1.94a1.973,1.973,0,0,1,2.19-1.877,3.87,3.87,0,0,1,1.5.313l-.25.688a2.855,2.855,0,0,0-1.314-.313c-.939,0-1.252.563-1.252,1,0,.626.438.939,1.377,1.314,1.126.438,1.752,1,1.752,2,0,1.064-.751,1.94-2.378,1.94a3.619,3.619,0,0,1-1.752-.438Z" transform="translate(-59.858 -83.4)" fill="#58595b"/>
      </g>
    </g>
  </g>
</svg>
